{"glyphs":{"0":{"ha":981,"x_min":24,"x_max":957,"o":"m 957 530 q 922 362 957 443 q 724 133 864 232 q 609 58 644 77 q 405 9 520 9 q 126 157 235 9 q 24 480 24 294 q 86 724 24 601 q 189 875 126 802 q 353 1017 269 963 q 563 1085 461 1085 q 857 907 745 1085 q 957 530 957 748 m 733 369 q 703 580 733 477 q 616 770 674 683 q 496 906 554 866 q 421 934 457 934 q 286 855 338 934 q 233 675 233 776 q 245 559 233 613 q 312 369 263 474 q 437 188 368 245 q 553 140 495 140 q 686 202 638 140 q 733 369 733 263 z "},"1":{"ha":502,"x_min":22,"x_max":480,"o":"m 480 158 q 389 72 480 132 q 213 6 287 6 q 149 43 173 6 q 132 93 132 71 l 132 861 q 125 893 132 885 q 103 901 118 901 q 69 895 96 901 q 28 892 41 889 q 22 906 22 900 q 58 946 22 922 q 132 1003 93 969 q 195 1058 163 1030 q 251 1082 229 1082 q 323 1042 288 1082 q 358 966 358 1002 l 358 152 q 366 143 363 145 q 383 134 377 134 q 402 142 395 139 q 451 173 421 151 l 476 173 l 480 158 z "},"2":{"ha":798,"x_min":30,"x_max":774,"o":"m 774 310 q 687 149 748 242 q 556 24 606 24 l 105 24 q 85 19 96 22 q 56 7 74 16 l 30 7 l 30 44 q 80 96 58 68 q 270 343 158 198 q 392 511 353 449 q 452 668 452 609 q 437 746 452 705 q 395 817 421 788 q 338 855 380 832 q 260 885 287 885 q 144 827 217 885 q 59 768 71 768 q 30 793 30 768 q 93 887 30 819 q 213 993 157 954 q 300 1049 291 1045 q 417 1087 368 1087 q 591 1012 511 1087 q 671 835 671 937 q 615 653 671 737 q 533 542 606 640 q 412 378 431 403 q 329 264 329 269 q 355 239 329 244 q 405 235 381 235 q 443 236 421 235 q 465 238 464 238 q 658 270 595 238 q 752 344 705 307 q 765 341 758 344 q 774 337 771 338 l 774 310 z "},"3":{"ha":774,"x_min":27,"x_max":751,"o":"m 751 526 q 721 403 751 467 q 566 198 677 309 q 418 68 473 105 q 238 9 331 9 q 98 43 160 9 q 27 149 27 83 q 116 308 27 195 q 244 421 205 421 q 276 397 276 421 q 225 309 276 374 q 201 263 201 279 q 229 223 214 236 q 350 183 273 183 q 470 225 417 183 q 535 359 535 275 q 501 470 535 421 q 433 529 474 508 q 318 557 378 556 q 259 584 259 559 q 332 687 259 595 q 443 842 390 758 q 417 858 427 858 l 191 858 q 132 823 176 858 q 71 788 87 788 q 41 810 41 788 q 76 861 41 822 q 176 966 111 901 q 269 1055 250 1040 q 329 1085 307 1085 l 706 1085 q 713 1077 711 1080 q 715 1059 715 1074 q 613 916 715 1017 q 511 777 511 816 q 592 739 511 768 q 686 684 647 718 q 733 616 715 656 q 751 526 751 576 z "},"4":{"ha":904,"x_min":25,"x_max":878,"o":"m 878 618 q 860 566 878 591 q 832 530 838 539 q 717 380 759 421 q 644 332 680 356 q 632 296 632 316 q 634 267 634 276 q 640 197 634 228 q 656 165 646 165 q 683 176 669 165 q 739 217 727 213 q 749 194 749 197 q 668 95 749 171 q 489 3 570 3 q 414 160 430 3 q 384 332 397 316 l 40 332 q 27 341 30 338 q 25 363 25 343 q 93 491 25 392 q 285 739 155 581 q 366 838 325 788 q 439 917 393 869 q 538 1027 485 965 q 610 1082 584 1082 l 629 1077 l 629 556 q 666 544 653 544 q 683 545 678 545 q 790 584 742 545 q 863 649 826 616 q 874 641 870 644 q 878 618 878 638 m 395 566 l 395 621 l 395 640 q 390 706 395 668 q 307 615 359 680 q 263 556 291 594 l 275 550 l 374 550 l 395 566 z "},"5":{"ha":857,"x_min":24,"x_max":841,"o":"m 841 1089 q 764 990 811 1040 q 650 906 703 925 q 539 889 616 894 q 462 833 462 884 q 510 780 462 790 q 652 715 592 761 q 738 616 711 669 q 765 508 765 563 q 727 350 765 428 q 665 253 709 313 q 467 57 554 109 q 239 4 380 4 q 99 28 157 4 q 24 124 24 59 q 91 269 24 167 q 195 371 158 371 q 222 311 220 371 q 239 226 225 251 q 272 195 259 205 q 363 163 316 163 q 470 204 424 163 q 527 353 527 256 q 465 519 527 449 q 316 598 403 588 q 290 601 298 601 q 260 609 263 606 q 253 640 253 618 q 265 755 260 697 q 270 866 270 813 q 262 896 270 891 q 225 901 253 901 l 225 937 q 309 1018 247 965 q 417 1085 387 1085 l 734 1085 q 785 1100 755 1085 q 820 1116 814 1116 l 841 1105 l 841 1089 z "},"6":{"ha":762,"x_min":27,"x_max":736,"o":"m 736 396 q 661 204 736 322 q 514 52 587 86 q 428 16 457 25 q 381 6 399 6 q 338 9 358 9 q 100 117 185 9 q 27 349 27 211 q 63 559 27 440 q 154 761 99 678 q 256 906 232 879 q 372 1008 269 921 q 483 1092 449 1073 q 526 1105 507 1105 q 553 1077 553 1105 q 477 999 553 1070 q 366 872 421 946 q 310 771 346 845 q 269 659 269 686 q 274 649 269 655 q 285 644 279 644 q 366 686 324 665 q 491 727 452 727 q 644 635 564 727 q 736 396 736 530 m 523 236 q 457 425 523 332 q 319 517 390 517 q 270 506 293 517 q 248 470 248 495 q 324 285 248 380 q 496 183 405 183 q 516 194 510 183 q 523 236 523 204 z "},"7":{"ha":745,"x_min":21,"x_max":725,"o":"m 725 1083 q 674 986 697 1033 q 587 804 621 879 q 514 638 547 717 q 467 523 467 525 q 393 386 440 468 q 301 242 335 287 q 185 112 244 168 q 37 1 118 50 q 26 9 31 4 q 21 22 21 13 q 89 120 21 34 q 151 205 132 173 q 202 303 177 248 q 251 417 226 358 q 363 668 318 553 q 420 827 392 739 q 213 857 420 857 q 152 847 185 857 q 92 814 120 838 l 52 814 l 52 845 q 236 1036 148 981 q 386 1079 306 1079 q 460 1073 409 1079 q 536 1067 510 1067 q 597 1070 575 1068 q 696 1102 665 1077 l 721 1102 l 725 1083 z "},"8":{"ha":721,"x_min":27,"x_max":702,"o":"m 702 405 q 671 315 702 372 q 547 154 628 236 q 446 53 454 59 q 301 9 387 9 q 99 99 185 9 q 27 247 27 176 q 76 363 27 297 q 177 496 126 430 q 109 573 139 530 q 80 666 80 615 q 129 804 80 731 q 207 912 176 867 q 334 1053 284 1021 q 443 1086 384 1086 q 596 1036 532 1086 q 660 900 660 986 q 584 724 660 807 q 507 610 507 641 q 640 513 584 560 q 702 405 702 460 m 457 745 q 417 822 457 782 q 313 867 371 867 q 269 851 287 867 q 251 811 251 835 q 327 706 251 762 q 411 658 392 658 q 440 690 424 658 q 457 745 457 723 m 510 275 q 397 390 510 322 q 269 451 297 451 q 240 418 259 451 q 222 362 222 386 q 296 247 222 301 q 424 197 363 197 q 482 222 454 197 q 510 275 510 247 z "},"9":{"ha":745,"x_min":30,"x_max":724,"o":"m 724 715 q 676 481 724 607 q 576 296 628 355 q 402 121 483 191 q 188 6 267 6 q 173 12 180 6 q 160 25 165 18 q 310 159 233 72 q 461 392 387 245 l 461 411 q 449 417 455 414 q 341 371 390 390 q 253 352 291 352 q 108 436 176 352 q 30 668 30 532 q 189 949 30 801 q 433 1085 335 1085 q 616 988 525 1085 q 724 715 724 875 m 499 587 q 420 805 499 717 q 275 884 349 884 q 251 862 257 884 q 245 814 245 841 q 301 628 245 702 q 431 538 369 538 q 477 545 462 538 q 499 587 499 557 z "}," ":{"ha":739,"x_min":0,"x_max":0,"o":""},"!":{"ha":349,"x_min":27,"x_max":321,"o":"m 273 1083 q 245 1027 257 1062 q 233 935 233 991 l 260 516 q 235 390 260 449 q 154 267 219 352 q 112 217 134 241 q 62 182 78 182 q 37 207 37 182 q 60 264 50 232 q 69 335 69 297 q 43 564 69 363 q 28 751 28 675 q 27 776 27 764 q 58 894 27 835 q 236 1101 108 988 l 270 1101 l 273 1083 m 321 140 q 265 57 321 115 q 177 -1 210 -1 q 129 30 163 -1 q 96 81 96 62 q 171 188 96 114 q 236 229 213 229 q 287 194 254 229 q 321 140 321 160 z "},"\"":{"ha":402,"x_min":37,"x_max":361,"o":"m 361 1089 l 329 687 l 279 687 l 272 694 l 264 694 l 232 1089 l 361 1089 m 165 1089 l 134 687 l 83 687 l 75 694 l 68 694 l 37 1089 l 165 1089 z "},"#":{"ha":780,"x_min":44,"x_max":737,"o":"m 737 705 l 724 619 l 556 619 l 536 486 l 706 486 l 694 402 l 519 402 l 519 409 l 526 408 l 488 139 l 399 139 l 436 402 l 297 402 l 259 139 l 171 139 l 208 402 l 44 402 l 58 486 l 220 486 l 239 619 l 75 619 l 87 705 l 251 705 l 285 947 l 374 947 l 340 705 l 479 705 l 513 947 l 601 947 l 567 705 l 737 705 m 476 619 l 327 619 l 309 486 l 449 486 l 468 628 l 476 626 l 476 619 z "},"$":{"ha":520,"x_min":21,"x_max":499,"o":"m 499 476 q 446 355 499 414 q 328 236 387 296 l 328 120 l 284 120 q 284 158 284 140 q 285 191 284 176 q 275 213 285 213 q 231 205 254 208 q 186 201 208 201 q 92 232 149 201 q 21 319 21 270 q 52 377 21 343 q 157 467 66 393 q 100 500 151 479 q 50 590 50 522 q 133 748 50 678 q 278 833 173 782 l 278 975 l 318 975 l 318 844 q 405 838 368 844 q 488 786 488 824 q 454 718 488 757 q 383 680 420 680 q 321 705 380 680 q 230 730 262 730 q 197 717 223 730 q 171 691 171 703 q 335 618 171 653 q 499 476 499 582 m 337 392 q 279 446 337 427 q 198 467 238 457 q 194 431 198 442 q 186 412 191 420 q 214 372 186 392 q 275 352 242 352 q 320 363 303 352 q 337 392 337 374 z "},"%":{"ha":839,"x_min":40,"x_max":807,"o":"m 418 842 q 373 669 418 754 q 238 538 328 585 l 235 544 l 232 536 q 158 578 189 556 q 95 640 123 604 q 40 799 40 703 q 93 968 40 894 q 153 1034 118 1000 q 225 1093 188 1068 q 298 1055 266 1077 q 362 997 331 1033 q 418 842 418 931 m 728 1051 l 183 -4 l 126 28 l 129 34 l 123 37 l 665 1083 l 728 1051 m 807 296 q 759 117 807 199 q 631 -6 711 35 l 631 -15 q 485 92 542 24 q 428 254 428 160 q 440 340 428 301 q 482 421 452 378 q 541 489 510 458 q 612 547 572 520 q 751 449 689 520 q 807 296 807 383 m 328 757 q 281 897 328 838 q 165 975 241 947 q 149 938 157 962 l 134 891 l 133 875 l 133 858 q 183 725 133 788 q 300 647 233 669 l 297 640 l 291 644 q 306 668 300 655 q 316 700 312 681 q 328 757 328 728 m 714 211 q 668 349 714 290 q 553 428 629 403 l 538 392 q 530 370 533 381 q 525 347 527 359 l 522 327 l 522 310 q 533 242 522 273 q 569 179 545 210 q 689 99 616 124 l 686 92 l 680 96 q 693 118 689 108 q 706 155 697 129 q 714 211 714 182 z "},"&":{"ha":709,"x_min":22,"x_max":686,"o":"m 684 245 q 615 27 684 130 q 492 -81 554 -65 q 494 -55 493 -71 q 495 -16 495 -40 q 480 142 495 77 q 408 254 460 235 l 154 9 q 63 103 103 33 q 22 253 22 174 q 72 417 22 332 q 133 507 89 443 q 172 545 158 532 q 186 564 186 559 q 166 620 174 585 q 158 703 158 655 q 191 834 158 762 q 293 966 225 906 q 386 1046 349 1017 q 449 1089 437 1089 q 510 992 460 1089 q 561 879 561 895 q 472 787 561 863 q 383 703 383 711 q 439 622 417 652 q 573 491 508 533 q 598 520 597 514 q 597 535 597 529 q 590 570 597 567 q 582 585 582 573 q 660 663 582 612 l 681 663 q 686 629 686 644 q 684 615 684 621 q 660 511 684 557 q 609 443 634 477 q 662 360 640 409 q 684 245 684 310 m 424 827 q 387 913 424 844 q 356 952 366 952 q 324 923 340 952 q 307 870 307 894 q 318 813 307 844 q 355 757 329 783 q 400 791 377 773 q 424 827 424 810 m 362 310 q 288 397 362 322 q 216 491 244 443 l 201 491 q 185 448 197 477 q 174 424 182 439 q 233 303 174 377 q 293 239 253 279 q 334 273 313 256 q 362 310 362 297 z "},"'":{"ha":201,"x_min":37,"x_max":165,"o":"m 165 1089 l 134 687 l 83 687 l 75 694 l 68 694 l 37 1089 l 165 1089 z "},"(":{"ha":449,"x_min":38,"x_max":420,"o":"m 106 163 q 38 464 38 307 q 143 842 38 663 q 259 1003 194 928 q 403 1138 325 1079 l 420 1118 l 375 1073 l 337 1028 q 263 924 294 975 q 207 814 232 873 q 161 553 161 705 l 161 530 l 163 507 q 188 341 163 434 q 251 188 207 262 q 313 108 276 146 l 390 35 l 306 -72 q 106 163 177 19 z "},")":{"ha":426,"x_min":18,"x_max":397,"o":"m 329 904 q 397 603 397 761 q 296 224 397 400 q 34 -72 194 47 l 18 -55 l 50 -19 l 81 16 q 225 240 176 126 q 275 513 275 355 l 273 551 l 272 588 q 262 674 266 647 q 244 739 257 700 q 186 878 225 808 q 153 926 170 907 q 127 954 136 946 l 58 1021 l 53 1025 l 47 1031 l 130 1138 q 329 904 259 1049 z "},"*":{"ha":526,"x_min":47,"x_max":482,"o":"m 482 944 l 446 863 l 403 867 l 368 869 l 334 867 l 310 864 l 331 842 l 366 813 l 377 805 l 392 792 q 414 773 402 788 l 387 696 l 300 703 q 294 737 297 721 q 282 776 291 754 q 275 801 281 786 q 264 826 269 816 q 253 803 260 819 q 241 774 247 788 q 223 703 229 742 l 140 696 l 112 780 q 140 796 126 788 q 176 824 154 805 q 217 866 198 842 l 192 869 l 154 870 l 127 869 q 103 866 109 869 l 93 864 l 77 863 l 47 940 l 112 994 q 146 969 123 986 q 179 947 160 960 q 196 938 186 943 q 235 922 205 934 q 231 948 235 935 q 220 980 228 960 l 195 1051 l 260 1098 l 264 1092 l 269 1098 l 332 1051 l 303 978 l 294 918 q 314 926 300 919 q 337 938 328 932 l 389 975 l 396 983 l 408 994 l 482 944 z "},"+":{"ha":544,"x_min":35,"x_max":507,"o":"m 507 460 q 486 458 495 458 q 409 460 443 458 q 347 462 375 461 l 350 332 l 165 332 l 171 458 q 148 460 163 460 q 126 461 134 461 l 84 461 q 56 462 69 461 q 35 467 43 462 l 35 644 l 167 638 q 171 700 171 656 q 182 762 171 745 l 344 762 q 349 703 349 728 q 348 672 349 689 q 347 638 347 656 l 507 638 l 507 460 z "},",":{"ha":248,"x_min":6,"x_max":228,"o":"m 228 132 q 202 75 228 123 q 142 -21 177 28 q 96 -84 102 -77 q 33 -142 52 -142 q 15 -133 24 -142 q 6 -117 6 -124 q 41 -66 6 -109 q 77 -10 77 -24 q 59 12 77 -1 q 21 58 21 41 q 61 132 47 108 q 126 207 105 207 q 197 170 146 207 q 228 132 228 148 z "},"-":{"ha":355,"x_min":22,"x_max":322,"o":"m 322 400 l 22 400 q 22 468 22 423 q 22 576 22 513 l 322 576 l 322 400 z "},".":{"ha":272,"x_min":21,"x_max":242,"o":"m 242 168 q 198 77 242 148 q 124 0 149 0 q 63 32 105 0 q 21 77 21 64 q 68 160 52 133 q 145 242 120 242 q 211 211 168 242 q 242 168 242 189 z "},"/":{"ha":751,"x_min":28,"x_max":731,"o":"m 731 1127 l 109 -84 l 30 -40 l 34 -35 l 28 -31 l 653 1173 l 731 1127 z "},":":{"ha":284,"x_min":30,"x_max":257,"o":"m 257 703 q 194 588 257 671 q 137 541 157 541 q 86 569 121 541 q 50 615 50 597 q 89 693 74 668 q 161 771 133 771 q 216 745 176 771 q 257 703 257 718 m 225 301 q 188 211 225 278 q 120 136 146 136 q 64 161 98 136 q 30 204 30 186 q 66 290 53 262 q 130 375 108 375 q 177 350 163 359 q 225 301 225 321 z "},";":{"ha":254,"x_min":9,"x_max":233,"o":"m 233 507 q 192 414 233 485 q 126 343 151 343 q 64 377 106 343 q 38 409 38 397 q 80 491 65 464 q 149 573 127 573 q 210 539 170 573 q 233 507 233 519 m 216 143 q 199 102 216 134 q 139 -1 177 58 q 71 -92 111 -43 q 28 -133 37 -133 q 15 -126 21 -133 q 9 -108 9 -118 q 41 -58 9 -100 q 74 -6 74 -15 q 49 22 74 1 q 24 65 24 43 q 61 143 24 77 q 118 210 98 210 q 171 183 127 210 q 216 143 216 157 z "},"<":{"ha":694,"x_min":46,"x_max":647,"o":"m 647 680 l 204 467 l 647 254 l 647 106 l 46 405 l 46 530 l 647 826 l 647 680 z "},"=":{"ha":467,"x_min":37,"x_max":434,"o":"m 434 588 l 37 588 q 37 655 37 610 q 37 764 37 700 l 428 764 q 431 664 428 730 q 434 588 434 598 m 428 329 l 37 329 q 37 389 37 347 q 37 493 37 430 l 434 493 q 431 412 434 461 q 428 329 428 363 z "},">":{"ha":694,"x_min":47,"x_max":649,"o":"m 47 254 l 491 467 l 49 681 l 47 826 l 649 529 l 649 405 l 47 106 l 47 254 z "},"?":{"ha":538,"x_min":27,"x_max":517,"o":"m 517 922 q 439 709 517 861 q 361 516 361 557 q 389 446 361 477 q 433 417 411 421 q 456 419 439 415 q 477 423 473 423 q 493 405 493 423 q 428 315 493 378 q 374 269 402 288 q 309 242 335 242 q 208 300 248 242 q 177 380 177 344 q 252 538 177 421 q 327 702 327 655 q 281 827 327 771 q 183 884 235 884 q 124 863 155 884 q 50 816 53 816 q 27 833 27 816 q 76 908 27 842 q 167 1009 126 974 q 236 1062 208 1045 q 337 1098 293 1098 q 467 1039 412 1098 q 517 922 517 984 m 460 149 q 393 53 460 108 q 309 3 332 3 q 262 31 297 3 q 220 93 220 64 q 279 179 220 115 q 375 242 338 242 q 405 225 381 242 q 460 149 460 183 z "},"@":{"ha":950,"x_min":27,"x_max":922,"o":"m 922 598 q 863 411 922 492 q 731 284 804 331 q 698 263 720 275 q 656 241 677 251 q 591 213 622 220 q 560 237 572 225 q 538 267 548 250 q 530 292 533 279 q 522 327 526 304 l 381 211 q 315 276 340 241 q 287 361 291 310 q 321 477 287 426 q 353 523 331 492 q 390 569 371 548 l 291 745 l 309 743 l 315 743 l 321 743 l 327 743 l 343 743 l 356 746 q 381 750 368 746 q 411 761 395 754 q 457 790 436 767 l 468 788 q 480 782 479 785 l 544 754 q 576 745 557 748 q 612 742 594 742 q 634 746 628 742 q 658 768 649 757 l 689 752 q 671 728 677 737 q 662 711 665 718 l 652 683 l 644 640 l 644 585 l 644 395 l 644 387 l 643 374 l 643 365 l 643 362 l 647 332 q 662 322 649 325 q 696 338 675 322 q 720 356 708 346 q 749 383 731 366 q 822 476 785 417 q 854 592 854 532 q 758 830 854 730 q 495 931 662 931 q 216 810 334 931 q 98 539 98 689 l 99 508 q 102 479 99 489 q 219 233 120 343 q 489 123 318 123 q 591 133 545 123 q 678 164 637 143 q 793 260 751 207 l 814 285 l 833 313 l 907 318 q 898 296 903 306 q 885 272 892 285 q 861 238 873 248 q 712 112 810 170 q 485 55 615 55 q 158 199 290 55 q 27 536 27 343 q 147 839 27 720 q 418 988 267 959 l 457 994 l 498 996 q 795 887 668 996 q 922 598 922 777 l 915 598 l 922 598 m 526 656 l 523 649 l 353 703 l 424 576 l 519 535 l 519 656 l 526 656 m 526 501 l 523 493 l 415 539 l 399 489 l 393 430 q 412 366 393 397 q 431 341 424 350 q 455 319 434 337 l 519 369 l 519 501 l 526 501 z "},"A":{"ha":1011,"x_min":24,"x_max":980,"o":"m 980 7 l 665 7 l 665 525 l 473 525 q 436 424 457 505 q 318 103 387 226 q 251 21 290 52 q 152 -18 204 -18 q 75 7 117 -18 q 24 81 24 38 q 39 116 24 102 q 72 130 55 130 q 118 83 115 130 q 155 35 121 35 q 264 117 235 35 q 284 272 284 170 q 277 411 284 332 q 263 576 270 489 q 303 761 263 677 q 405 904 335 830 q 536 1027 446 949 l 526 1043 l 248 1043 q 199 1037 222 1043 q 115 1011 157 1024 l 115 1027 q 142 1070 133 1056 q 176 1114 170 1114 q 198 1105 180 1114 q 232 1096 216 1096 l 980 1096 l 980 7 m 655 606 l 655 1022 q 569 932 612 1011 q 532 851 553 904 q 505 762 517 813 q 479 653 480 656 l 479 606 l 655 606 z "},"B":{"ha":934,"x_min":6,"x_max":904,"o":"m 904 223 q 833 89 904 155 q 610 7 746 7 q 377 38 545 7 q 257 53 297 53 q 196 47 230 53 q 102 25 161 41 q 93 40 98 33 q 105 59 102 52 q 117 114 117 84 l 117 959 q 61 1021 117 986 q 6 1098 6 1056 q 18 1129 6 1111 q 46 1147 31 1147 q 89 1097 77 1147 q 160 1048 100 1048 q 332 1073 248 1061 q 492 1085 417 1085 q 749 1014 625 1085 q 894 808 894 931 q 813 749 894 789 q 733 693 733 709 q 819 616 733 684 q 904 532 904 548 l 904 223 m 601 845 q 578 968 601 925 q 473 1025 547 1025 q 448 1027 452 1027 q 436 1024 442 1027 q 415 1011 430 1021 l 415 641 q 433 612 415 612 q 540 690 479 612 q 601 845 601 768 m 601 334 l 601 389 q 584 542 601 505 q 527 578 566 578 q 454 533 493 578 q 420 489 440 519 l 420 130 q 437 103 420 112 q 480 93 454 93 q 584 148 559 93 q 601 282 601 186 l 601 334 z "},"C":{"ha":904,"x_min":30,"x_max":884,"o":"m 884 1040 q 785 889 884 1018 q 615 672 699 780 q 499 520 569 609 q 427 424 437 439 q 378 361 424 421 q 356 312 356 332 q 414 154 356 225 q 554 83 473 83 q 686 152 632 83 q 733 290 733 214 l 762 290 q 835 256 785 275 q 869 228 869 242 q 749 75 869 160 q 532 10 656 10 q 332 46 403 10 q 210 126 270 86 q 146 52 204 126 q 108 4 115 12 l 56 4 q 50 19 53 12 q 100 96 50 31 q 151 183 151 161 q 68 331 102 242 q 30 557 30 427 q 165 915 30 757 q 508 1082 309 1082 q 627 1058 563 1082 q 761 1009 691 1034 q 827 1048 788 1009 q 855 1067 847 1067 q 873 1056 863 1067 q 884 1040 884 1046 m 628 878 q 599 967 628 931 q 520 1003 570 1003 q 387 887 433 1003 q 341 582 341 771 q 341 547 341 563 q 340 520 340 532 q 343 489 340 507 q 347 455 346 471 q 408 516 383 479 q 458 590 433 553 q 547 700 525 669 q 628 878 628 810 z "},"D":{"ha":987,"x_min":7,"x_max":968,"o":"m 968 572 q 855 188 968 347 q 529 12 731 12 q 378 33 467 12 q 242 53 290 53 q 167 44 195 53 q 105 4 139 34 l 80 4 l 75 30 q 93 68 75 43 q 111 109 111 93 l 111 1012 q 59 1061 111 1036 q 7 1120 7 1086 q 21 1142 7 1129 q 43 1155 34 1155 q 119 1100 66 1124 q 267 1076 171 1076 q 369 1083 296 1076 q 492 1090 443 1090 q 848 937 720 1090 q 968 572 968 793 m 634 542 q 601 866 634 751 q 505 1022 569 981 l 423 1022 l 423 100 l 455 96 q 607 257 564 96 q 634 504 634 358 l 634 542 z "},"E":{"ha":881,"x_min":28,"x_max":867,"o":"m 867 41 q 855 15 867 24 q 827 6 844 6 q 782 24 810 6 q 745 43 755 43 q 709 34 733 43 q 522 13 653 13 q 170 174 312 13 q 28 556 28 335 q 149 898 28 745 q 535 1082 294 1082 q 652 1073 603 1082 q 739 1051 694 1061 q 790 1082 745 1051 q 827 1098 814 1098 q 861 1062 861 1098 q 847 1018 861 1036 q 811 984 841 1011 l 811 146 q 839 95 811 124 q 867 41 867 65 m 739 120 l 739 952 q 660 1008 739 983 q 581 1027 635 1015 q 408 889 477 1027 q 352 687 352 779 q 374 653 352 663 q 384 650 377 652 l 550 650 q 600 675 576 650 l 631 675 l 631 504 q 554 519 625 504 q 465 527 511 527 q 366 520 381 527 q 352 457 352 513 q 411 202 352 310 q 591 80 477 80 q 663 92 616 80 q 739 120 709 103 z "},"F":{"ha":892,"x_min":22,"x_max":872,"o":"m 872 1036 q 720 923 811 957 q 570 897 650 897 q 510 900 533 897 q 474 906 488 903 q 444 877 451 898 q 437 820 437 855 q 471 711 437 767 q 535 655 505 655 l 801 655 q 678 549 762 551 q 594 527 594 547 q 622 448 609 496 q 635 344 635 400 q 520 98 635 195 q 257 6 411 6 q 106 50 171 6 q 22 152 41 95 q 167 211 95 182 l 183 211 q 180 180 183 201 q 177 155 177 160 q 205 83 177 114 q 281 53 232 53 q 375 95 335 53 q 414 191 414 137 q 362 337 414 226 q 233 548 301 467 l 22 548 l 22 563 q 124 649 80 625 q 186 665 155 665 q 208 663 202 663 q 225 672 220 663 q 233 709 230 680 q 409 910 245 817 q 328 957 397 932 q 186 987 248 987 q 114 979 149 987 q 58 956 78 971 l 37 956 q 151 1046 71 1011 q 343 1082 230 1082 q 520 1064 451 1082 q 715 1022 681 1022 q 802 1025 770 1022 q 872 1036 848 1033 z "},"G":{"ha":928,"x_min":24,"x_max":912,"o":"m 912 545 q 884 508 897 526 q 872 470 872 488 l 872 58 q 845 50 860 50 q 824 52 832 50 q 774 59 786 59 q 742 56 759 59 q 649 31 724 53 q 519 9 575 9 q 160 185 306 9 q 24 561 24 349 q 64 749 24 653 q 155 900 98 832 q 222 970 188 938 q 272 1002 257 1002 q 291 996 278 1002 q 387 981 324 981 q 540 1014 468 981 q 684 1082 612 1046 q 764 1039 737 1053 q 845 966 845 990 q 771 910 845 954 q 686 866 696 866 q 616 912 669 866 q 544 957 563 957 q 468 943 493 947 q 386 921 393 926 q 353 799 371 909 q 331 505 331 663 q 390 165 331 266 q 538 80 440 80 q 559 81 556 80 q 582 99 561 83 l 582 489 q 561 507 570 501 q 541 520 551 513 q 653 601 551 544 q 755 656 687 621 q 822 614 764 656 q 912 545 881 572 z "},"H":{"ha":922,"x_min":19,"x_max":900,"o":"m 900 406 q 836 174 900 279 q 681 7 783 86 q 493 -108 607 -49 l 479 -108 q 585 47 532 -30 q 626 269 626 123 q 576 502 626 397 q 492 607 551 554 q 384 665 428 665 q 349 631 349 665 l 349 12 l 53 12 l 53 1030 q 41 1052 53 1048 q 19 1082 30 1056 l 767 1082 l 767 1030 l 353 1030 l 353 734 q 363 725 358 730 q 374 720 368 720 q 476 764 400 720 q 646 864 560 814 q 721 807 663 864 q 839 647 792 736 q 886 527 872 588 q 900 406 900 465 z "},"I":{"ha":517,"x_min":21,"x_max":486,"o":"m 486 1034 q 434 1009 460 1027 l 434 6 l 130 6 l 130 1009 q 97 1030 106 1025 q 66 1034 87 1034 l 21 1034 l 21 1086 l 486 1086 l 486 1034 z "},"J":{"ha":731,"x_min":21,"x_max":687,"o":"m 683 1025 q 568 906 637 947 q 431 864 499 864 q 275 898 409 864 q 160 915 211 915 q 94 906 127 915 q 37 879 61 898 l 21 879 l 21 900 q 131 1048 66 1003 q 298 1092 195 1092 q 443 1068 374 1092 q 575 1043 511 1043 q 623 1045 595 1043 q 683 1051 650 1046 l 683 1025 m 687 158 q 577 -75 687 13 q 296 -164 467 -164 q 120 -123 191 -164 q 35 18 35 -74 q 59 93 35 61 q 154 137 92 137 q 224 112 194 137 q 254 47 254 86 q 201 -38 254 -16 q 148 -69 148 -61 q 167 -98 157 -89 q 257 -126 198 -126 q 358 -98 316 -126 q 400 -19 400 -69 l 400 814 q 544 864 477 839 q 662 935 610 888 l 687 935 l 687 158 z "},"K":{"ha":881,"x_min":35,"x_max":867,"o":"m 867 118 q 782 46 857 102 q 613 -47 686 -27 l 355 427 l 340 417 l 340 1 l 35 1 l 35 1083 l 340 1083 l 340 470 q 482 578 418 480 q 539 745 539 666 q 522 842 539 801 q 482 916 501 879 q 582 1008 482 932 q 702 1098 665 1070 q 754 1017 730 1074 q 777 916 777 960 q 760 822 777 878 q 717 721 743 765 q 641 622 675 656 q 569 545 573 553 l 867 118 z "},"L":{"ha":864,"x_min":35,"x_max":844,"o":"m 844 19 q 832 10 838 15 q 819 4 826 4 l 35 4 l 35 1085 l 332 1085 l 332 126 q 348 84 332 95 q 390 74 363 74 q 420 75 412 75 q 493 86 477 75 q 567 145 522 112 q 656 192 587 158 q 712 230 712 219 q 660 375 677 321 q 609 647 609 541 q 625 737 609 700 q 690 788 647 788 q 742 742 742 788 q 736 714 742 723 q 711 705 730 705 q 686 711 694 705 q 668 728 674 723 q 654 691 660 715 q 647 643 647 666 q 720 337 647 553 q 844 19 780 155 z "},"M":{"ha":1147,"x_min":30,"x_max":1123,"o":"m 1123 604 q 1109 455 1123 516 q 1060 330 1095 395 q 1006 238 1025 266 q 968 188 996 223 l 907 117 q 858 69 882 93 q 857 53 857 61 q 969 88 864 53 q 1099 137 1074 123 l 1114 137 l 1114 7 l 802 7 q 783 31 783 24 q 864 241 829 121 q 898 483 898 361 q 848 733 898 609 q 742 857 798 857 q 733 848 736 851 q 723 824 723 835 l 723 7 l 436 7 l 436 820 q 420 869 436 848 q 362 895 399 895 q 329 889 338 895 q 321 866 321 884 l 321 7 l 30 7 l 30 1086 l 321 1086 q 321 977 321 1031 q 340 960 322 960 q 433 997 377 960 q 561 1082 496 1039 q 635 1034 594 1082 q 720 937 677 987 q 830 1005 746 937 q 915 1073 872 1039 q 1000 991 943 1073 q 1079 845 1046 926 q 1112 736 1101 789 q 1123 604 1123 683 z "},"N":{"ha":928,"x_min":27,"x_max":900,"o":"m 900 638 q 876 466 900 545 q 808 310 853 387 q 756 240 789 279 q 689 170 723 201 q 661 141 672 155 q 637 114 650 127 q 585 74 603 89 q 567 53 567 59 q 579 47 567 47 q 629 56 610 52 q 829 118 745 81 l 860 118 l 860 4 l 471 4 l 471 25 q 618 253 570 118 q 653 455 653 353 q 556 752 653 610 q 384 884 465 884 q 353 853 353 884 l 353 4 l 53 4 l 53 900 q 44 926 53 915 q 27 952 35 938 q 136 1017 35 959 q 241 1076 170 1036 q 319 986 270 1076 q 361 943 343 943 q 465 989 384 943 q 628 1085 545 1036 q 665 1068 650 1076 q 746 1008 708 1046 q 863 837 826 928 q 900 638 900 746 z "},"O":{"ha":934,"x_min":22,"x_max":921,"o":"m 921 536 q 864 321 921 426 q 777 204 824 247 q 631 93 739 165 q 446 3 496 3 q 331 49 420 3 q 130 207 208 112 q 22 502 22 337 q 30 581 22 544 q 65 684 38 618 q 112 774 86 734 q 174 848 137 814 q 311 958 256 922 q 408 1021 366 994 q 457 1055 440 1045 q 522 1089 508 1089 q 659 998 550 1089 q 811 842 768 907 q 878 720 850 786 q 921 536 921 619 m 674 395 q 603 653 674 510 q 358 934 514 832 q 276 815 301 870 q 251 683 251 759 q 325 418 251 564 q 581 132 418 235 q 674 395 674 216 z "},"P":{"ha":963,"x_min":12,"x_max":943,"o":"m 943 752 q 867 564 943 650 q 564 446 764 446 q 418 479 471 446 q 355 529 386 504 l 355 10 l 30 10 l 30 1043 q 12 1065 30 1051 l 12 1089 q 100 1078 46 1083 q 226 1073 155 1073 q 355 1077 313 1073 q 489 1089 465 1089 q 805 988 666 1089 q 943 752 943 887 m 621 768 q 597 938 621 882 q 465 1022 561 1022 q 400 1005 423 1022 q 361 884 361 972 q 363 714 361 826 q 366 587 366 603 q 420 616 393 616 q 451 604 437 616 q 464 573 464 592 q 451 538 464 550 q 434 529 436 530 q 440 517 439 525 l 485 513 q 594 587 561 513 q 621 768 621 649 z "},"Q":{"ha":975,"x_min":24,"x_max":957,"o":"m 957 551 q 920 381 957 474 q 830 233 882 288 q 762 173 811 213 q 615 69 691 115 q 582 50 592 56 q 548 19 548 28 q 653 -41 548 1 q 795 -90 748 -80 q 816 -92 801 -92 l 842 -92 q 867 -92 854 -92 q 892 -96 879 -92 q 858 -117 884 -105 q 805 -142 832 -130 q 748 -191 768 -174 q 717 -208 728 -208 q 604 -133 683 -208 q 455 -58 526 -58 q 369 -91 411 -58 q 318 -124 327 -124 q 300 -100 300 -124 q 350 -46 300 -84 q 415 3 383 -21 q 259 102 334 50 q 127 229 185 154 q 50 370 77 296 q 24 525 24 445 q 71 721 24 646 q 183 845 89 749 q 332 972 213 875 q 511 1093 482 1093 q 610 1042 538 1093 q 816 861 699 980 q 923 715 889 788 q 957 551 957 643 m 708 412 q 679 562 708 480 q 598 717 650 644 q 451 854 559 774 q 350 922 415 881 q 287 834 325 922 q 250 720 250 746 q 301 495 250 598 q 434 315 344 408 q 615 146 471 276 q 689 287 663 192 q 708 412 708 358 z "},"R":{"ha":1028,"x_min":9,"x_max":1009,"o":"m 1009 52 q 957 18 1000 38 q 845 -9 900 -9 q 662 53 759 -9 q 523 229 548 126 q 517 274 519 247 q 516 306 516 301 q 519 376 516 334 q 523 423 523 418 q 449 474 523 445 q 369 538 400 493 l 350 522 l 350 7 l 37 7 l 37 1030 q 23 1062 37 1040 q 9 1086 9 1083 l 15 1096 q 165 1074 117 1080 q 238 1068 214 1068 q 340 1076 281 1073 q 473 1080 399 1080 q 687 1056 616 1080 q 876 909 798 1020 q 923 839 900 873 q 943 752 943 804 q 805 522 943 603 q 622 445 652 460 q 774 371 635 427 q 832 334 832 347 q 809 281 819 312 q 799 207 799 250 q 867 78 799 115 q 1009 52 916 52 m 628 779 q 581 955 628 885 q 461 1025 535 1025 q 400 994 437 1025 q 362 931 362 962 l 362 610 q 366 595 362 603 q 369 592 366 594 q 387 612 384 609 q 400 616 390 616 l 418 616 q 454 607 439 616 q 468 578 468 597 q 462 560 468 567 q 440 544 455 553 l 440 527 q 474 520 451 525 q 486 519 477 520 q 600 603 564 519 q 628 779 628 669 z "},"S":{"ha":898,"x_min":19,"x_max":875,"o":"m 875 397 q 834 253 875 313 q 712 146 793 192 q 559 68 680 127 q 411 1 423 1 q 318 75 409 1 q 221 134 266 117 q 122 166 176 152 q 19 180 68 180 l 19 202 q 132 296 81 248 q 211 352 191 352 q 380 306 276 352 q 489 248 455 273 q 553 186 523 223 q 587 163 572 163 q 622 188 607 163 q 637 248 637 214 q 498 411 637 334 q 238 547 368 479 q 96 757 96 638 q 130 866 96 816 q 287 983 177 937 q 564 1090 541 1090 q 635 1017 569 1090 q 706 952 671 977 q 757 923 725 937 q 847 884 844 885 q 755 830 833 870 q 677 792 728 817 q 644 799 658 796 q 516 847 567 820 q 417 949 452 882 q 387 972 403 972 q 344 947 366 972 q 318 875 318 916 q 488 759 318 842 q 644 677 587 711 q 811 560 773 600 q 875 397 875 495 z "},"T":{"ha":904,"x_min":16,"x_max":884,"o":"m 723 235 l 699 235 l 699 702 l 723 702 l 723 235 m 884 949 q 850 906 884 932 q 796 869 823 887 q 745 817 782 857 q 702 788 718 788 q 624 850 665 819 q 485 913 538 913 q 411 858 434 887 q 335 625 335 773 q 442 335 335 458 q 705 211 548 211 l 728 211 q 798 225 764 211 q 870 266 832 239 q 878 245 878 251 q 844 151 867 186 q 723 44 804 93 l 723 -137 q 758 -160 740 -149 q 776 -191 776 -171 q 765 -214 776 -202 q 743 -226 755 -226 q 721 -217 728 -222 q 699 -167 699 -201 l 699 21 q 683 25 686 25 q 614 12 649 18 q 548 6 579 6 q 247 135 371 6 q 124 455 124 264 q 184 683 124 556 q 331 869 244 811 q 402 899 375 888 q 443 923 428 910 q 362 949 418 938 q 282 959 306 959 q 188 947 254 959 q 46 903 92 929 l 16 903 q 205 1037 81 980 q 471 1095 328 1095 q 525 1090 501 1093 q 694 1059 592 1082 q 792 1018 714 1056 q 884 949 884 972 z "},"U":{"ha":916,"x_min":25,"x_max":895,"o":"m 895 145 q 858 112 895 130 q 807 90 816 95 q 720 37 754 58 q 683 16 686 16 q 618 83 658 16 q 566 154 578 149 l 296 7 q 112 161 192 41 q 25 448 25 291 q 75 692 25 559 q 211 918 124 826 q 285 974 220 926 q 356 1048 338 1012 q 343 1052 349 1049 q 232 1018 270 1030 q 87 963 118 981 l 68 963 l 68 1093 l 445 1093 l 448 1079 q 424 1040 448 1067 q 310 860 355 963 q 284 753 300 835 q 269 632 269 671 q 340 369 269 504 q 539 208 424 208 q 570 219 550 208 l 570 1093 l 875 1093 l 875 194 q 885 168 875 183 q 895 145 895 154 z "},"V":{"ha":892,"x_min":24,"x_max":869,"o":"m 869 966 q 790 724 869 903 q 680 483 734 603 l 575 242 q 514 109 535 155 q 455 3 476 30 q 414 75 437 21 q 349 242 403 100 q 233 533 290 396 q 114 854 191 638 q 24 1071 58 1012 l 24 1090 l 315 1090 q 369 981 332 1067 q 460 759 406 895 q 536 559 520 601 q 595 433 576 455 q 680 598 621 461 q 751 853 751 765 q 691 969 751 937 q 590 990 653 990 l 585 1003 q 616 1067 585 1034 q 725 1111 658 1111 q 827 1069 785 1111 q 869 966 869 1027 z "},"W":{"ha":1244,"x_min":24,"x_max":1186,"o":"m 1186 366 q 981 179 1083 272 q 814 38 898 96 q 780 16 801 30 q 697 71 761 16 q 560 191 628 130 q 460 98 550 191 q 352 4 369 4 q 256 71 331 4 q 105 256 161 154 q 44 390 61 338 q 24 541 24 457 q 123 858 24 727 q 275 1022 198 940 q 260 1034 267 1028 q 197 1017 244 1034 q 80 956 134 993 l 55 956 l 55 1085 l 372 1085 q 267 909 303 987 q 232 746 232 830 q 310 448 232 579 q 501 256 380 331 l 516 256 l 516 281 q 460 408 488 312 q 437 553 437 483 q 457 684 437 618 q 505 808 471 736 q 540 867 511 820 q 578 923 569 913 q 601 943 587 934 q 628 962 616 953 q 668 1012 663 996 q 663 1028 672 1028 q 622 1017 641 1022 q 479 952 567 997 l 454 952 l 454 1085 l 771 1085 l 771 1059 q 688 918 718 999 q 658 754 658 838 q 677 608 658 690 q 725 470 696 526 q 805 344 758 402 q 919 230 851 285 q 922 233 922 232 q 929 250 929 242 l 929 997 q 923 1034 929 1009 q 910 1080 916 1058 l 1186 1082 l 1186 366 z "},"X":{"ha":1011,"x_min":24,"x_max":999,"o":"m 999 1020 q 953 929 968 959 q 891 839 904 839 q 842 860 882 839 q 792 881 802 881 q 674 811 734 881 q 621 723 621 751 q 646 654 621 697 q 702 610 672 610 l 929 610 q 861 529 903 550 q 776 514 832 514 l 731 514 l 727 498 l 959 24 l 959 -1 l 646 -1 q 468 358 557 177 q 411 297 440 337 q 281 95 368 238 q 250 38 264 66 q 220 15 232 15 q 123 55 155 41 q 24 111 24 98 q 74 205 58 174 q 136 301 127 301 q 213 272 143 301 q 303 242 282 242 q 329 260 315 242 q 372 327 359 307 q 414 383 403 366 q 431 437 431 409 q 415 495 431 470 q 377 520 399 520 l 164 520 q 185 567 177 553 q 235 616 211 616 q 290 613 269 613 q 327 618 313 613 q 340 637 340 624 q 273 780 340 668 q 103 944 191 921 q 126 962 112 954 q 220 1011 173 986 q 290 1053 262 1036 q 346 1087 309 1065 q 491 949 389 1087 q 590 810 539 879 q 683 928 634 869 q 844 1046 780 1046 l 944 1046 q 979 1036 959 1046 q 999 1020 999 1027 z "},"Y":{"ha":1022,"x_min":21,"x_max":1000,"o":"m 1000 891 q 952 711 1000 804 q 823 536 904 618 l 649 368 q 611 332 641 361 q 561 285 581 304 q 514 242 530 257 q 485 201 485 214 l 505 174 l 869 174 l 869 142 l 767 6 l 293 6 l 293 31 q 383 170 350 130 q 476 281 430 225 q 282 464 361 356 q 198 708 198 581 q 260 904 198 810 q 347 1017 331 993 q 320 1025 328 1024 q 298 1027 312 1027 q 180 1008 245 1027 q 21 965 34 965 q 59 1016 35 983 q 106 1083 83 1049 l 465 1083 l 465 1062 q 414 966 439 1014 q 392 876 392 913 q 414 772 392 829 q 486 665 437 715 q 573 579 535 615 q 686 496 663 496 q 758 560 714 496 q 813 728 813 638 q 788 853 813 804 q 714 952 751 901 l 919 1093 q 962 1051 938 1089 q 1000 891 1000 990 z "},"Z":{"ha":839,"x_min":27,"x_max":819,"o":"m 819 869 q 703 669 819 850 q 591 489 624 544 q 442 260 513 356 q 358 121 358 146 q 371 98 358 109 q 395 86 384 86 l 587 86 q 659 127 626 86 q 697 222 687 163 l 718 222 q 768 136 734 183 q 798 81 798 96 q 764 28 798 64 q 728 6 743 6 l 123 6 q 54 33 81 6 q 27 98 27 61 q 134 322 27 163 q 248 489 191 405 l 380 691 q 431 777 415 748 q 485 882 485 867 q 477 897 480 892 q 452 913 467 913 q 363 892 415 901 q 267 884 310 884 q 163 912 229 884 q 98 971 98 940 q 152 1012 98 978 q 253 1076 235 1064 l 269 1076 q 338 983 279 1018 q 421 954 386 954 q 519 981 460 954 q 658 1076 592 1015 q 743 981 674 1065 q 819 869 819 891 z "},"[":{"ha":337,"x_min":37,"x_max":303,"o":"m 303 -40 l 37 -40 l 37 1124 l 296 1124 l 296 1117 l 303 1117 l 303 1006 l 168 1006 l 168 77 l 303 77 l 303 -40 z "},"\\":{"ha":0,"x_min":46,"x_max":761,"o":"m 761 -43 l 674 -95 l 46 1132 l 136 1184 l 755 -28 l 757 -34 l 761 -43 z "},"]":{"ha":331,"x_min":22,"x_max":288,"o":"m 288 -40 l 30 -40 l 30 -33 l 22 -33 l 22 77 l 157 77 l 157 1008 l 22 1008 l 22 1124 l 288 1124 l 288 -40 z "},"^":{"ha":461,"x_min":24,"x_max":437,"o":"m 437 841 q 406 804 418 816 q 341 765 369 765 q 220 915 334 765 q 174 841 191 864 q 109 765 124 765 q 50 802 93 765 q 24 838 24 824 q 69 921 24 860 q 109 971 89 946 q 155 1037 145 1022 q 219 1093 198 1093 q 270 1067 245 1093 q 321 1006 296 1036 q 395 914 353 972 q 437 841 437 855 z "},"_":{"ha":709,"x_min":-7,"x_max":717,"o":"m 717 -198 l -7 -198 l -7 -90 l 0 -83 l 0 -75 l 717 -75 l 717 -198 z "},"`":{"ha":390,"x_min":43,"x_max":349,"o":"m 349 889 l 340 881 l 337 869 l 103 919 l 43 1065 l 194 1065 l 349 889 z "},"a":{"ha":526,"x_min":27,"x_max":502,"o":"m 502 84 q 442 33 502 74 q 371 -9 381 -9 q 322 34 349 -9 q 296 81 313 49 q 220 44 263 71 q 136 -3 143 -3 q 96 33 124 -3 q 27 250 27 120 q 38 347 27 309 q 103 457 49 386 q 228 548 149 516 q 290 594 290 575 q 244 657 290 625 q 183 689 198 689 q 149 680 177 689 q 103 671 121 671 q 61 681 81 671 q 41 712 41 691 q 68 740 41 740 q 105 733 77 740 q 121 730 115 730 q 201 757 145 730 q 315 813 257 783 q 403 757 338 813 q 477 644 477 693 l 477 142 q 489 109 477 134 q 502 84 492 102 m 285 148 l 281 502 q 211 431 238 488 q 183 338 183 374 q 212 209 183 276 q 264 142 241 142 q 285 148 270 145 z "},"b":{"ha":573,"x_min":30,"x_max":550,"o":"m 550 464 q 514 294 550 375 q 332 95 461 171 q 264 49 298 71 q 182 3 195 3 q 95 61 161 3 q 30 145 30 120 l 30 929 q 106 983 30 953 q 222 1011 183 1014 l 222 777 q 244 768 236 768 q 316 793 256 768 q 383 819 377 819 q 476 720 415 819 q 550 464 550 598 m 387 343 q 321 591 387 468 q 236 702 267 690 q 234 404 236 572 q 232 216 232 236 q 263 167 232 198 q 306 136 294 136 q 365 207 343 136 q 387 343 387 278 z "},"c":{"ha":473,"x_min":24,"x_max":451,"o":"m 451 717 q 366 633 402 655 q 272 612 331 612 q 218 621 242 612 q 161 652 194 629 q 147 612 152 635 q 142 556 142 588 q 204 344 142 454 q 399 145 275 219 q 332 67 393 132 q 259 3 270 3 q 241 10 248 6 q 133 108 192 38 q 49 242 74 177 q 24 393 24 306 q 77 609 24 505 q 161 727 112 678 q 205 773 191 758 q 270 819 254 819 q 318 751 291 780 q 377 723 344 723 q 424 737 399 723 l 451 737 l 451 717 z "},"d":{"ha":591,"x_min":21,"x_max":573,"o":"m 573 99 q 492 35 560 80 q 436 9 451 9 q 383 57 408 9 q 343 105 358 105 q 280 58 334 105 q 213 12 226 12 q 137 65 186 12 q 21 375 21 192 q 43 482 21 412 q 93 600 65 551 q 185 714 105 622 q 285 814 270 814 q 310 804 297 814 q 328 789 322 793 q 338 799 331 792 q 344 814 344 805 l 344 968 q 421 1003 369 993 q 502 1025 473 1014 l 532 1025 l 532 171 q 543 136 532 154 q 573 99 554 118 m 338 550 q 306 601 338 563 q 226 687 273 640 q 183 581 199 658 q 173 508 179 556 q 204 352 173 430 q 334 182 247 242 q 336 407 334 281 q 338 550 338 533 z "},"e":{"ha":485,"x_min":21,"x_max":461,"o":"m 461 584 q 343 437 461 538 q 225 322 225 337 q 417 134 225 281 q 344 65 409 121 q 269 9 279 9 q 224 34 259 9 q 149 99 189 59 q 49 257 83 165 q 21 396 21 332 q 41 498 21 439 q 99 615 62 557 q 194 724 118 644 q 300 813 278 813 q 335 771 304 813 q 387 700 361 736 q 424 649 393 694 q 461 584 461 594 m 298 499 q 270 553 298 508 q 204 650 232 613 l 189 650 q 164 576 174 612 q 154 522 154 539 q 165 437 154 474 q 195 399 176 399 q 256 443 213 399 q 298 499 298 488 z "},"f":{"ha":408,"x_min":21,"x_max":384,"o":"m 384 1000 q 352 961 384 988 q 304 934 321 934 q 256 965 296 934 q 226 981 235 981 q 214 974 220 981 q 204 963 207 966 q 256 888 244 916 q 269 838 257 884 q 288 801 276 810 q 315 792 300 792 q 340 789 334 792 q 346 765 346 786 q 315 730 346 736 q 285 690 285 724 l 285 -3 l 87 -3 l 87 711 q 50 736 61 727 q 21 788 31 751 q 64 802 43 799 q 86 833 86 804 q 61 894 86 875 q 47 919 47 904 q 58 931 52 926 q 173 1009 93 965 q 284 1061 233 1043 q 303 1067 291 1064 q 343 1042 329 1051 q 384 1000 384 1012 z "},"g":{"ha":615,"x_min":24,"x_max":597,"o":"m 597 -24 q 502 -175 597 -102 q 312 -248 406 -248 q 205 -226 260 -248 q 151 -174 151 -204 q 177 -137 167 -149 q 247 -100 211 -100 q 298 -164 270 -136 q 368 -192 327 -192 q 436 -163 402 -192 q 470 -96 470 -134 q 415 1 470 -77 q 349 80 361 80 q 288 44 332 80 q 220 9 244 9 q 114 117 189 9 q 24 368 24 245 q 136 616 24 476 q 270 742 176 666 q 377 819 365 819 q 464 740 436 767 q 553 631 553 656 l 553 109 q 575 58 553 95 q 597 -24 597 21 m 341 160 l 341 601 q 312 641 322 628 q 264 683 278 683 q 204 576 235 683 q 189 498 189 525 q 232 309 189 400 q 341 160 290 186 z "},"h":{"ha":573,"x_min":28,"x_max":548,"o":"m 548 406 q 491 142 548 279 q 297 -105 421 -27 l 291 -95 q 351 47 325 -44 q 377 267 377 139 q 353 464 377 362 q 256 656 321 606 l 236 656 l 236 7 l 28 7 l 28 1006 l 199 1073 l 235 1073 l 235 717 l 260 717 q 325 761 303 746 q 403 805 393 805 q 426 777 417 789 q 514 604 482 700 q 536 533 533 547 q 548 406 548 482 z "},"i":{"ha":318,"x_min":25,"x_max":281,"o":"m 264 947 q 214 887 251 913 q 120 854 170 854 q 58 869 92 854 q 25 906 25 884 q 65 953 25 918 q 124 988 105 988 q 148 977 139 988 q 264 947 171 947 m 281 4 l 72 4 l 72 635 q 64 657 72 644 q 35 691 56 669 q 109 757 43 702 q 185 811 174 811 q 244 740 207 811 q 281 635 281 668 l 281 4 z "},"j":{"ha":303,"x_min":18,"x_max":287,"o":"m 256 934 q 189 879 222 906 q 112 854 154 854 q 52 872 87 854 q 18 912 18 889 q 52 953 40 940 q 114 996 92 996 q 137 972 126 984 q 256 949 163 949 l 256 934 m 287 -44 q 245 -161 287 -121 q 151 -216 223 -183 l 115 -216 q 155 -171 142 -188 q 180 -106 180 -140 q 134 -3 180 -43 q 65 40 80 31 l 65 632 q 58 663 65 646 q 30 703 50 681 q 105 770 41 721 q 177 819 168 819 q 235 744 199 819 q 270 603 270 669 l 270 50 q 275 33 270 44 q 287 -44 287 1 z "},"k":{"ha":569,"x_min":34,"x_max":548,"o":"m 548 112 q 498 58 516 75 q 417 3 443 3 q 313 195 350 3 q 264 337 293 303 l 245 337 q 239 322 239 331 l 239 7 l 34 7 l 34 1002 q 89 1033 50 1017 q 208 1083 182 1071 l 239 1083 l 239 684 q 347 737 266 684 q 431 792 389 764 q 480 743 449 792 q 517 624 517 686 q 456 494 517 547 q 395 426 395 442 q 430 370 395 418 q 471 307 465 322 q 493 205 476 293 q 501 176 495 194 q 527 139 507 158 q 548 112 548 120 m 346 533 q 329 595 346 567 q 284 635 306 635 q 264 628 270 631 q 245 600 245 616 l 245 414 q 322 464 293 420 q 346 533 346 499 z "},"l":{"ha":266,"x_min":33,"x_max":230,"o":"m 230 6 l 33 6 l 33 965 q 126 1010 47 975 q 230 1051 205 1045 l 230 6 z "},"m":{"ha":816,"x_min":21,"x_max":785,"o":"m 785 1 l 582 1 l 582 631 q 572 659 582 650 q 542 674 561 668 q 534 667 538 671 q 530 653 530 663 l 530 1 l 318 1 l 318 647 q 299 662 307 656 q 285 668 291 668 q 260 653 282 668 l 260 1 l 52 1 l 52 631 q 31 674 52 646 q 21 697 21 687 q 95 779 21 718 q 163 814 137 814 q 216 770 188 814 q 254 725 244 725 q 349 767 273 725 q 433 808 424 808 q 471 781 446 808 q 525 725 496 754 q 589 752 538 725 q 694 808 640 779 q 748 765 712 808 q 785 700 785 723 l 785 1 z "},"n":{"ha":597,"x_min":24,"x_max":576,"o":"m 576 105 q 511 37 576 87 q 433 -13 446 -13 q 387 34 421 -13 q 349 120 349 86 l 349 588 q 334 641 349 609 q 298 672 319 672 q 276 658 287 672 q 266 634 266 643 l 266 7 l 61 7 l 61 641 q 42 686 61 662 q 24 712 24 711 q 100 762 24 721 q 188 804 177 804 q 237 757 210 804 q 275 711 264 711 q 378 757 293 711 q 467 804 464 804 q 511 765 485 804 q 544 666 544 720 l 544 197 q 554 154 544 179 q 576 105 564 130 z "},"o":{"ha":556,"x_min":25,"x_max":533,"o":"m 533 414 q 507 276 533 341 q 464 201 489 233 q 390 103 417 136 q 285 6 310 6 q 235 30 264 6 q 179 78 205 55 q 65 212 105 137 q 25 378 25 287 q 46 502 25 443 q 100 604 66 560 q 288 820 264 820 q 368 749 300 820 q 474 619 443 672 q 516 521 499 576 q 533 414 533 465 m 397 236 q 337 467 397 358 q 185 628 247 628 q 160 601 167 628 q 154 544 154 573 q 205 334 154 412 q 375 171 244 275 q 393 198 389 185 q 397 236 397 211 z "},"p":{"ha":626,"x_min":16,"x_max":603,"o":"m 603 421 q 560 221 603 301 q 418 68 517 140 q 375 31 396 49 q 321 10 347 10 q 291 16 304 10 l 273 16 q 267 -49 267 -12 q 269 -75 267 -56 q 269 -96 270 -95 q 204 -140 264 -120 q 78 -191 111 -173 q 64 -163 64 -173 l 64 78 q 40 112 64 93 q 16 130 22 126 q 35 164 25 152 q 64 191 52 180 l 64 619 q 49 658 64 632 q 21 709 35 683 q 90 768 21 720 q 167 817 160 817 q 207 782 176 817 q 259 706 238 748 q 408 788 343 739 q 440 804 430 804 q 536 677 476 804 q 603 421 603 538 m 421 324 q 392 521 421 446 q 300 644 363 595 l 285 644 q 276 630 279 635 q 273 619 273 625 l 273 161 q 328 129 291 152 q 356 114 352 114 q 405 210 384 114 q 421 324 421 282 z "},"q":{"ha":556,"x_min":24,"x_max":529,"o":"m 529 -99 q 502 -133 529 -120 q 375 -188 439 -160 l 340 -188 l 340 -43 q 336 30 340 9 q 316 50 332 50 q 254 28 300 50 q 186 6 208 6 q 92 102 148 6 q 24 352 24 217 q 35 457 24 392 q 63 559 46 522 q 198 702 80 597 q 384 820 329 820 q 462 758 396 820 q 529 681 529 696 l 529 -99 m 327 616 q 298 658 327 626 q 259 689 270 689 q 204 622 232 689 q 176 495 176 556 q 214 304 176 412 q 322 121 259 180 q 324 425 322 254 q 327 616 327 595 z "},"r":{"ha":461,"x_min":19,"x_max":440,"o":"m 440 690 q 412 644 440 677 q 343 581 356 581 q 316 601 334 581 q 269 644 293 629 l 269 1 l 65 1 l 65 644 q 49 681 65 658 q 19 715 34 705 q 81 773 27 731 q 157 814 134 814 q 201 786 174 814 q 256 730 228 758 q 310 772 267 730 q 355 814 352 814 q 397 780 384 793 q 440 690 440 736 z "},"s":{"ha":496,"x_min":28,"x_max":477,"o":"m 477 266 q 455 180 477 226 q 395 105 433 133 q 274 16 296 30 q 235 3 253 3 q 168 55 217 24 q 28 114 120 86 q 80 182 38 146 q 171 223 127 223 q 282 174 217 223 q 335 139 322 145 l 340 155 q 328 191 340 170 q 276 251 316 211 q 126 403 134 393 q 41 570 41 501 q 140 736 41 647 q 281 817 230 817 q 344 764 324 782 q 409 702 409 708 q 373 646 409 686 q 318 607 337 607 q 235 643 279 607 q 170 694 171 693 l 160 686 q 306 511 202 616 q 477 266 477 337 z "},"t":{"ha":355,"x_min":24,"x_max":340,"o":"m 340 102 q 274 48 340 90 q 192 6 208 6 q 138 47 167 6 q 109 117 109 87 l 109 748 l 24 748 l 24 816 q 198 889 117 816 q 279 1011 264 952 l 300 1011 l 300 855 q 335 816 300 830 l 335 749 l 304 749 l 304 188 q 322 134 304 165 q 340 102 340 103 z "},"u":{"ha":579,"x_min":30,"x_max":564,"o":"m 564 92 q 494 40 564 77 q 412 3 424 3 q 371 31 395 3 q 324 89 347 59 q 230 46 310 89 q 140 3 151 3 q 93 41 121 3 q 65 118 65 78 l 65 610 q 53 650 65 622 q 30 709 41 678 q 38 718 35 714 q 69 749 56 737 q 108 789 89 768 q 154 826 145 826 q 205 782 167 826 q 253 675 253 727 l 253 183 q 271 147 253 164 q 303 130 290 130 q 315 134 309 130 q 324 139 321 137 l 324 805 l 526 805 l 526 167 q 545 117 526 139 q 564 92 564 95 z "},"v":{"ha":527,"x_min":30,"x_max":511,"o":"m 511 550 q 496 394 511 464 q 458 267 480 324 q 420 183 427 198 q 361 83 399 142 q 329 30 344 56 q 296 6 310 6 q 210 75 270 6 q 87 297 133 164 q 50 444 71 347 q 30 600 30 541 l 30 785 q 110 822 40 790 q 199 863 180 854 l 214 863 l 214 624 q 230 519 214 604 q 272 352 245 433 q 322 242 294 287 q 366 195 346 204 q 397 281 386 225 q 409 400 409 338 q 380 564 409 492 q 293 693 350 635 l 418 819 q 464 759 449 788 q 511 550 511 674 z "},"w":{"ha":739,"x_min":27,"x_max":718,"o":"m 718 526 q 698 393 718 473 q 653 267 678 313 q 618 201 624 211 q 584 143 613 191 q 551 84 569 114 q 505 30 519 30 q 375 188 488 30 q 275 53 347 168 q 230 4 244 4 q 189 44 223 4 q 66 257 108 140 q 38 375 49 307 q 27 508 27 442 q 74 746 27 699 q 260 823 89 759 l 276 823 l 276 804 q 241 721 256 776 q 220 563 220 647 q 247 374 220 464 q 315 232 275 284 q 340 267 340 248 q 298 414 316 331 q 279 572 279 498 q 318 749 279 721 q 462 808 392 771 q 473 768 473 798 q 471 709 473 751 q 468 658 468 668 q 505 411 468 530 q 579 253 535 315 q 601 287 595 263 q 606 359 606 312 q 575 576 606 498 q 504 715 539 646 q 551 774 504 728 q 610 820 598 820 q 668 728 626 820 q 718 526 718 619 z "},"x":{"ha":550,"x_min":21,"x_max":526,"o":"m 526 136 q 496 105 526 129 q 471 83 480 92 q 418 27 445 55 q 380 3 392 3 q 316 55 353 3 q 262 137 288 96 q 180 41 229 123 q 140 9 161 9 q 72 68 126 9 q 21 129 55 87 q 52 177 21 137 q 126 260 117 260 q 164 229 133 260 q 222 188 195 198 q 232 202 228 197 q 236 214 236 207 q 210 303 236 222 q 164 459 183 384 q 113 590 145 533 q 35 684 81 647 l 170 810 q 259 712 220 780 q 287 686 273 686 q 347 752 304 686 q 406 819 390 819 q 448 779 434 795 q 491 689 491 728 q 406 569 491 650 q 374 597 386 582 q 331 644 344 634 q 310 616 310 621 q 335 544 327 573 q 392 358 366 449 q 410 290 402 321 q 431 228 418 260 q 491 149 454 173 q 526 136 502 142 z "},"y":{"ha":550,"x_min":9,"x_max":532,"o":"m 532 606 q 504 414 532 519 q 424 228 476 310 q 327 83 352 114 q 213 -40 285 46 q 171 -86 188 -59 q 155 -143 155 -112 q 162 -184 155 -167 q 176 -220 168 -201 q 127 -256 176 -230 q 40 -303 86 -276 q 15 -262 21 -282 q 9 -216 9 -242 q 98 -64 9 -126 q 186 22 186 -1 q 118 121 155 59 q 55 270 81 183 q 29 371 35 329 q 22 449 22 412 q 22 485 22 467 q 24 523 22 504 q 24 620 24 570 q 35 721 25 669 q 111 768 41 759 q 207 796 180 777 l 228 796 q 230 762 230 773 q 226 717 230 746 q 216 595 216 649 q 235 400 216 496 q 318 188 262 267 q 378 304 352 201 q 403 495 403 406 q 378 652 403 560 q 332 802 346 755 l 344 811 l 492 811 q 518 738 504 795 q 532 606 532 681 z "},"z":{"ha":615,"x_min":24,"x_max":588,"o":"m 588 650 q 544 587 587 650 q 446 437 502 525 q 337 263 384 341 q 294 188 325 245 q 254 98 254 114 q 270 78 254 81 q 309 74 285 74 q 411 100 375 74 q 479 163 445 132 q 527 109 486 163 q 567 43 567 55 q 538 19 553 25 q 477 6 510 6 l 80 6 q 52 19 61 13 q 24 81 24 40 q 68 219 24 130 q 241 508 112 307 q 300 591 279 560 q 340 677 340 649 q 315 706 340 706 q 239 682 282 706 q 155 624 195 658 q 93 689 127 643 q 71 730 71 718 q 114 786 71 751 q 173 822 157 822 q 211 789 189 822 q 260 757 233 757 q 383 789 276 757 q 493 822 489 822 q 541 740 526 767 q 588 650 588 658 z "},"{":{"ha":408,"x_min":19,"x_max":377,"o":"m 230 461 q 239 418 235 445 q 244 366 244 392 l 244 183 q 274 82 244 105 q 377 59 304 59 l 377 -69 l 371 -68 l 365 -69 l 358 -69 l 350 -69 q 165 -38 232 -69 q 98 136 98 -6 l 98 346 q 95 390 98 369 q 83 428 92 411 q 19 477 68 460 l 19 592 q 81 637 65 604 q 98 715 98 669 l 98 944 q 129 1064 98 1011 q 232 1130 157 1117 l 291 1132 l 352 1133 l 377 1133 l 377 999 q 276 977 309 999 q 244 878 244 954 l 244 691 q 230 597 244 640 q 167 530 217 561 q 230 461 216 504 z "},"|":{"ha":384,"x_min":126,"x_max":275,"o":"m 275 1117 l 275 -40 l 126 -40 l 126 1117 l 275 1117 z "},"}":{"ha":408,"x_min":22,"x_max":380,"o":"m 168 601 q 160 641 164 618 q 155 697 155 665 l 155 882 q 126 984 155 959 q 85 1000 112 993 q 22 1008 58 1008 l 22 1133 l 35 1135 l 41 1135 l 49 1135 q 235 1107 165 1135 q 301 929 301 1077 l 301 718 q 304 673 301 687 q 315 637 306 659 q 380 588 331 603 l 380 473 q 317 428 332 460 q 301 349 301 396 l 301 121 l 301 118 q 271 1 301 55 q 167 -62 241 -53 l 139 -65 q 108 -68 118 -65 l 77 -68 l 49 -68 l 34 -68 l 22 -66 l 22 65 q 123 89 90 65 q 155 188 155 112 l 155 372 q 168 465 155 424 q 233 533 182 505 q 168 601 185 559 z "},"~":{"ha":745,"x_min":41,"x_max":711,"o":"m 41 895 q 118 1014 71 962 q 244 1065 165 1065 q 315 1051 281 1065 l 383 1020 l 423 999 l 462 983 l 488 975 l 516 972 q 583 1000 556 972 q 628 1056 610 1027 l 631 1062 l 634 1068 l 711 1006 q 634 891 683 947 q 507 841 584 841 q 468 842 479 841 q 432 854 457 844 q 399 869 408 864 q 369 885 390 873 l 306 915 q 239 931 281 926 q 165 900 195 931 q 117 835 136 869 l 41 895 z "},"":{"ha":573,"x_min":27,"x_max":547,"o":"m 547 396 q 455 312 547 352 q 332 260 393 285 l 332 115 l 293 115 l 293 256 q 95 365 163 288 q 27 567 27 442 q 65 714 27 652 q 177 822 99 768 q 240 857 194 833 q 290 884 287 881 q 293 925 293 888 l 293 1012 l 332 1012 l 332 897 q 431 873 381 885 q 529 790 529 839 q 519 759 529 776 q 454 672 482 714 q 424 624 434 640 q 380 573 392 573 q 363 598 363 573 q 365 622 363 604 q 366 650 366 640 q 316 742 366 706 q 244 768 278 768 q 201 739 216 768 q 186 668 186 709 q 251 472 186 557 q 415 387 316 387 q 462 392 446 387 q 513 415 477 397 l 544 415 l 547 396 z "},"":{"ha":1696,"x_min":30,"x_max":1637,"o":"m 1637 38 l 30 38 l 30 1099 l 1637 1099 l 1637 38 m 1613 59 l 1613 1080 l 52 1080 l 52 59 l 1613 59 m 1522 671 q 1429 434 1522 532 q 1151 325 1325 325 l 873 325 l 873 516 l 770 516 l 770 325 l 677 325 l 677 516 l 340 516 q 341 428 340 467 q 344 353 343 390 q 321 232 344 272 q 202 145 290 182 l 157 145 l 157 186 q 215 233 194 208 q 236 293 236 259 l 236 993 l 340 993 l 340 665 l 353 653 l 724 993 l 770 993 l 770 579 l 873 579 l 873 993 l 1210 993 q 1452 879 1390 940 q 1522 671 1522 811 m 1393 672 q 1318 872 1393 823 q 1129 931 1306 879 l 988 931 l 988 389 l 1082 389 q 1204 408 1151 396 q 1393 672 1393 454 m 665 591 l 665 814 q 535 692 634 782 q 421 591 436 603 l 665 591 z "},"‚":{"ha":230,"x_min":24,"x_max":198,"o":"m 198 860 q 176 783 185 808 q 124 706 148 706 q 74 721 90 715 q 24 762 24 740 q 43 830 37 807 q 74 926 64 900 q 115 1019 84 953 q 151 1085 145 1085 l 180 1068 q 134 954 145 983 q 124 916 124 925 q 161 882 124 892 q 198 860 198 872 z "},"ƒ":{"ha":225,"x_min":21,"x_max":198,"o":"m 198 1028 q 177 946 198 1009 q 143 857 155 884 l 83 731 q 75 712 78 721 q 55 697 68 697 q 40 703 47 697 q 33 717 33 709 q 65 788 55 764 q 98 869 98 860 q 59 894 98 882 q 21 931 21 906 q 41 991 34 969 q 87 1089 66 1058 q 149 1070 118 1079 q 198 1028 198 1051 z "},"„":{"ha":408,"x_min":30,"x_max":381,"o":"m 381 823 q 361 743 368 770 q 315 662 335 662 q 260 678 278 672 q 204 723 204 700 q 228 805 204 731 q 256 887 238 838 q 332 1049 315 1049 l 356 1043 l 356 1003 q 328 938 352 997 q 304 875 304 879 q 356 845 304 869 q 381 823 381 833 m 204 860 q 182 783 191 808 q 130 706 154 706 q 80 721 96 715 q 30 762 30 740 q 49 830 43 807 q 80 926 69 900 q 120 1019 90 953 q 157 1085 151 1085 l 186 1068 q 140 954 151 983 q 130 916 130 925 q 167 882 130 892 q 204 860 204 872 z "},"…":{"ha":402,"x_min":27,"x_max":378,"o":"m 378 974 q 329 817 378 941 q 239 644 276 681 q 222 654 230 649 q 213 671 213 659 l 279 822 q 219 857 253 842 q 207 881 207 863 q 226 935 207 889 q 278 1034 267 1034 q 347 1003 294 1034 q 378 974 378 986 m 204 1022 q 182 940 204 1003 q 149 851 161 878 l 89 725 q 81 706 84 715 q 61 691 74 691 q 46 697 53 691 q 38 711 38 703 q 71 782 61 758 q 103 863 103 854 q 65 888 103 876 q 27 925 27 900 q 47 986 40 963 q 93 1083 72 1052 q 155 1064 124 1073 q 204 1022 204 1045 z "},"†":{"ha":1200,"x_min":28,"x_max":1163,"o":"m 1163 18 l 28 18 l 28 1090 l 1163 1090 l 1163 18 m 1148 31 l 1148 1077 l 43 1077 l 43 31 l 1148 31 m 1056 938 l 557 938 l 557 610 l 860 610 l 860 513 l 557 513 l 557 102 l 133 102 l 133 199 l 448 199 l 448 938 l 120 938 l 120 1030 l 1056 1030 l 1056 938 z "}}}
